<svg width="182" height="253" viewBox="0 0 182 253" fill="none" xmlns="http://www.w3.org/2000/svg">
<path d="M122.781 249.344C146.781 239.744 166.281 187.844 180.781 119.844C180.781 113.344 174.881 112.644 163.281 119.844C91.7812 200.844 92.7812 222.844 91.7812 225.344C90.7812 227.844 92.7812 261.344 122.781 249.344Z" fill="#E9A439" stroke="#E9A439"/>
<path d="M31.232 191.691C56.8166 195.377 99.6541 160.18 146.212 108.54C149.461 102.911 144.702 99.3551 131.056 99.7904C28.6353 134.188 18.5013 153.741 16.3852 155.406C14.2692 157.071 -0.748752 187.083 31.232 191.691Z" fill="#E9A439" stroke="#E9A439"/>
<path d="M16.2376 100.346C33.9618 112.391 78.6724 101.733 132.131 80.1747C136.598 77.1615 134.344 72.7819 124.018 68.147C35.2004 56.5558 20.5434 67.4421 18.3615 67.9138C16.1797 68.3855 -5.91758 85.2903 16.2376 100.346Z" fill="#E9A439" stroke="#E9A439"/>
<path d="M48.1805 34.8813C56.4175 45.4999 85.1496 47.8078 121.211 45.3096C124.46 44.3781 123.964 41.3292 118.704 36.5637C67.9766 12.4383 57.125 16.0908 55.7323 15.9493C54.3396 15.8078 37.8841 21.608 48.1805 34.8813Z" fill="#E9A439" stroke="#E9A439"/>
</svg>
