<svg width="66" height="92" viewBox="0 0 66 92" fill="none" xmlns="http://www.w3.org/2000/svg">
<path d="M21.8541 1.93018C13.2248 5.38189 6.21352 24.0426 1 48.4923C1 50.8293 3.12136 51.081 7.29218 48.4923C33.0002 19.3685 32.6407 11.4583 33.0002 10.5595C33.3598 9.66057 32.6407 -2.38445 21.8541 1.93018Z" fill="#E9A439" stroke="#E9A439"/>
<path d="M54.7708 22.6598C45.5718 21.3345 30.1695 33.9895 13.4296 52.5568C12.2611 54.5807 13.9724 55.8594 18.8788 55.7029C55.7045 43.335 59.3482 36.3048 60.1091 35.7061C60.8699 35.1074 66.2696 24.3166 54.7708 22.6598Z" fill="#E9A439" stroke="#E9A439"/>
<path d="M60.1612 55.5029C53.7884 51.1722 37.7126 55.0043 18.4915 62.7556C16.8853 63.839 17.6957 65.4137 21.4085 67.0802C53.3431 71.2479 58.6131 67.3337 59.3975 67.1641C60.182 66.9945 68.1272 60.9163 60.1612 55.5029Z" fill="#E9A439" stroke="#E9A439"/>
<path d="M48.676 79.0407C45.7143 75.2228 35.3836 74.393 22.4174 75.2912C21.2495 75.6261 21.4277 76.7224 23.3191 78.4358C41.5582 87.1102 45.4599 85.7969 45.9607 85.8478C46.4614 85.8987 52.378 83.8132 48.676 79.0407Z" fill="#E9A439" stroke="#E9A439"/>
</svg>
