<?xml version="1.0" encoding="UTF-8"?>
<!DOCTYPE svg PUBLIC "-//W3C//DTD SVG 1.1//EN" "http://www.w3.org/Graphics/SVG/1.1/DTD/svg11.dtd">
<!-- Creator: CorelDRAW -->
<svg xmlns="http://www.w3.org/2000/svg" xml:space="preserve" width="409.402mm" height="136.661mm" style="shape-rendering:geometricPrecision; text-rendering:geometricPrecision; image-rendering:optimizeQuality; fill-rule:evenodd; clip-rule:evenodd"
viewBox="0 0 405.13 135.235"
 xmlns:xlink="http://www.w3.org/1999/xlink">
 <defs>
  <style type="text/css">
   <![CDATA[
    .fil0 {fill:#1C3764}
    .fil1 {fill:#1C3764;fill-rule:nonzero}
   ]]>
  </style>
 </defs>
 <g id="Ebene_x0020_1">
  <metadata id="CorelCorpID_0Corel-Layer"/>
  <g id="_509164928">
   <g>
    <path id="_509165816" class="fil0" d="M17.9818 56.3217c-1.48791,1.21133 -2.34507,2.37713 -3.03123,2.91575 -0.472418,1.81001 -4.00615,6.2678 0.967695,11.8282l2.0101 2.02663c0.141211,0.147643 0.200486,0.210777 0.346644,0.372868 0.0262235,0.0290932 0.0949982,0.174955 0.115482,0.136659 0.0206819,-0.038593 0.0804516,0.0901493 0.115185,0.13943 0.90941,0.279948 1.23211,0.951961 2.07492,1.65158 0.810156,0.672508 1.55461,0.634212 1.86592,1.96834 -1.18906,1.27466 -1.49414,1.5363 -2.81966,2.61799 -0.347832,0.77661 -0.975711,1.30187 -1.49375,2.0764 -0.511308,0.764043 -0.893181,1.45486 -1.30741,2.29747 -0.428086,0.870718 -1.79537,4.46798 -2.21395,4.84649 -0.000197913,0.408888 -3.17927,14.0178 -3.54294,15.1803 -0.250162,1.41617 0.645988,5.38531 0.755631,6.23129l-0.400576 1.51295c-0.0487855,0.905353 -0.432737,1.4695 -0.930784,2.13657 -0.748704,2.26442 -1.48405,2.55931 -1.50087,5.61647l0.59364 2.49123c0.231459,0.191085 1.01935,1.20064 1.07358,1.64832 0.0968784,0.802141 -0.556135,1.25694 -1.081,1.48692 -0.665581,0.604228 -1.73223,0.978481 -2.60018,1.26387 -0.919701,0.302312 -1.7638,0.523875 -2.67687,0.856072 -1.69334,0.616202 -0.975809,0.7776 -1.93974,1.63872 -0.785714,0.702096 -1.60359,0.412154 -2.3616,1.11286l0.486272 1.0619c10.44,4.88756 34.519,3.7742 45.0871,3.47881 0.077186,-3.44824 0.24561,-10.9633 0.361686,-16.1428 -1.96874,-1.15423 -4.34241,-2.36902 -6.45315,-3.27011 -0.697742,-0.477366 -2.14419,-0.84202 -3.06854,-1.31592l-0.771761 -0.576916c1.1286,-2.29569 2.55555,-6.7614 2.3041,-8.69867l0.0193955 -2.47114c0.0501709,-1.04458 0.147445,-1.93024 0.296177,-2.95969l8.73815 0.523875c2.8641,-0.42482 3.75085,-2.54368 5.20699,-4.78009l5.94164 -6.79217 -0.432737 -1.29653c0.416607,-0.49686 0.634509,-0.729507 1.01223,-1.19084 0.52625,-0.721986 2.45085,-2.67113 3.2142,-3.33701l-0.0534365 -1.37767c1.22647,-1.61784 0.528032,-0.735543 0.84865,-1.54649 0.393154,-0.879822 0.739403,-1.21241 1.25635,-2.10738 0.072634,-0.570682 1.08684,-1.66613 -3.91323,-2.24512 -0.957404,1.17669 -1.79972,2.20742 -2.72358,3.33978 -0.458465,-0.17545 -0.913071,-0.416409 -1.45209,-0.598785l-1.20707 -0.400873 -0.695169 0.818865c0.418982,0.986101 0.787891,1.82218 1.19252,2.77048 -1.73649,2.0859 -2.75782,3.03945 -4.72497,5.18007 -2.34586,0.496069 -6.05782,1.59449 -8.56884,1.68305 -4.67708,-2.82323 -3.2245,-1.70512 -7.04085,-4.85025 -1.41755,-1.16818 -3.23954,-1.27307 -2.51379,-5.15029 0.491912,-2.62789 5.33375,-1.26793 6.85847,-4.59851 0.0329525,-1.42359 -0.346051,-1.26357 0.143685,-2.50548 0.361389,-0.916238 0.419179,-0.804714 0.300531,-1.93747 -0.409878,-3.91125 0.0996491,-2.83728 -0.00524469,-3.9352l-1.94044 -0.623624c-0.142695,-1.68266 -0.0739205,-0.300927 -0.37267,-1.61141 -0.125279,-0.549604 -0.111326,-1.51977 -0.20009,-2.14686 -0.230766,-1.6307 -0.61917,-2.2284 -1.17313,-3.39727 -0.400873,-0.400774 -0.692893,-0.591661 -1.02083,-1.233 -3.06389,-3.38292 -14.9887,-1.4133 -16.9548,0.187325zm27.5916 78.5941c19.0963,0.0985606 38.2254,-0.533573 56.6239,-0.695763l27.5865 -0.290338c5.31357,-0.14982 6.2676,-0.825989 10.2158,-1.37797l0.0503688 -1.96755c-6.82057,-1.22073 -15.0249,-3.42815 -20.0688,-7.68585 3.36868,-5.14257 8.68056,-7.48071 9.76502,-15.2623 0.62204,-4.46412 -1.2613,-6.20655 -2.0295,-8.86531 -4.39367,-12.1254 -3.23558,-18.5397 -0.228293,-30.201 3.30425,-12.8125 0.579588,-12.3153 -1.07833,-20.0989 -4.58485,-6.95842 -12.4937,-13.4443 -9.39789,-19.6517 2.49717,-5.0065 0.295286,-17.4013 -13.6687,-15.0912 -2.94395,0.487064 -12.7686,1.15057 -13.8448,10.9448 1.1663,2.84668 1.40736,1.48346 2.72754,3.16957 0.746725,0.953841 0.589582,1.10069 0.801151,2.9208 0.212558,1.82535 -0.446195,3.70186 -0.915545,5.81557 3.93075,1.48158 1.12464,0.801547 3.61221,3.2806l3.8969 3.30811c3.25824,-0.255407 5.04391,-2.11173 7.15633,-2.01832l3.96687 5.37551c-2.65639,2.57307 -3.78993,1.49503 -6.20833,5.99607 -6.41624,11.9408 -5.34394,9.62183 -13.9099,21.4918 -1.62388,-0.411263 -15.8241,-8.40932 -17.2513,-9.55256 -9.67893,-10.8052 -5.31871,-9.49467 -16.4092,-11.4823 -1.86117,2.29549 -4.18873,4.53221 -1.00045,7.5009 1.99625,1.8586 4.09284,0.917227 8.28948,5.09784 8.19458,8.16351 20.6378,15.8304 25.5199,18.468l12.4884 -9.58284c0.865572,4.29154 1.17105,20.0258 -0.0740194,24.6308 -0.541787,2.00397 -4.30084,2.66608 -6.2396,3.46832 -1.82397,0.754543 -9.73761,2.03544 -12.7794,2.79097 -7.17741,1.44862 -35.9822,6.47571 -37.2346,13.4216l-0.361686 16.1428z"/>
    <path id="_509166176" class="fil0" d="M57.3794 60.5779c-1.29099,-4.13638 -11.1036,-8.79446 -13.4437,-10.765 -6.53865,-5.50653 -8.36637,-23.5409 -11.6195,-24.7845 3.41964,-0.363269 7.56126,16.9368 12.0986,20.7696 2.91625,3.16314 10.8534,5.88702 13.8116,9.4827 0.316265,-2.90635 1.15957,-5.72364 -0.21147,-8.08395 -11.6713,-20.0933 -8.24535,-26.0389 -7.5102,-28.7918 -1.27387,12.2365 4.90201,20.3555 7.64636,23.6414 -0.633915,-2.07462 -1.55678,-4.03356 -1.1856,-5.64616 0.186434,-0.80986 0.424226,-6.97692 1.50918,-13.1539 0.0471033,-0.268073 -5.78509,-7.97906 -6.32025,-9.39621 -0.783438,-2.07462 3.69048,3.8124 6.69846,7.42064 1.4505,1.73995 0.715554,-7.47844 3.53463,-9.32942 0.453715,-0.297859 -5.70296,24.9007 -2.51646,23.5418 4.99502,-2.13004 1.41389,-13.0741 7.14367,-16.6379 -1.21538,2.24047 -2.2288,5.25211 -1.95746,9.15872 -1.82575,11.6853 -6.2393,12.541 -3.71433,23.6824 2.8451,-3.76895 6.71894,-1.08318 10.3855,-8.09751 1.57766,-3.01837 1.74213,-13.1678 6.52242,-18.4049 0.857062,-0.939097 -2.72862,9.30032 -2.85133,10.7367 -2.74654,21.3506 -13.7268,10.9436 -13.9068,23.0304 -0.104498,7.01374 0.444215,21.7552 2.04038,28.5748 0.504876,2.15695 0.549307,2.54932 1.20202,3.48633 0.0777798,0.111722 1.65129,-0.1517 3.32701,0.12231 0.814115,0.133096 1.59409,0.811047 2.30103,1.08357 0.885462,0.341301 1.55995,0.504183 1.71185,1.12513 -0.0579885,0.0235516 -1.20479,-0.412747 -2.01752,-0.689133 -0.528724,-0.179804 -1.75084,-0.989564 -3.06577,-0.91317 -0.689133,0.0399784 -1.13127,0.873686 -1.17481,1.4418 -0.126268,1.64782 1.92114,3.46892 2.35665,3.69998 3.88048,2.0578 3.65407,0.454507 5.69128,-0.0586812 -0.531891,0.997283 -1.78676,2.00753 -2.86182,2.10431 -1.20479,0.108258 -3.49831,0.12419 -4.77277,-1.70967 -0.27025,-0.3888 -0.326358,-0.0781756 -0.326952,-0.27124 -0.00286974,-0.98432 -0.521797,-1.30573 -0.700612,-1.39449 -0.72258,-0.358321 -1.22389,-0.556135 -1.47791,-0.974424 0.353275,3.85425 -0.472814,3.00828 3.67049,9.76225 -2.37397,-1.8872 -1.62744,-0.214043 -4.37397,-5.32534 -0.470637,-0.875863 -0.261839,-2.45491 -0.607296,-3.4801 -0.557125,-1.65386 -0.759293,-2.92634 -0.778688,-3.54432 -0.434716,1.19421 -0.520214,2.98591 -0.902087,4.76228 -0.943451,4.38921 -2.34487,9.24887 -7.05698,8.95981 1.51443,-0.280047 3.09368,-1.93786 4.39139,-4.78445 0.538323,-1.18085 0.877249,-2.67954 1.19421,-4.31074 0.272328,-1.40132 0.811245,-2.70151 1.16967,-4.15122 -5.00759,2.32271 -5.41648,1.16521 -7.19255,9.51753 -1.35491,6.37171 -1.58667,-6.91953 2.38436,-9.18524 1.44971,-0.827177 3.12871,-1.26842 4.28224,-3.09843 -0.0534365,-0.0254318 -1.49523,-25.8192 -2.52616,-29.1225z"/>
    <path id="_509165696" class="fil0" d="M35.4737 40.6005l6.45008 3.60033 -6.3437 -16.7944 6.85451 16.2485 0.364358 -2.0478c0.178913,-1.96824 0.187424,-4.27423 -0.00910399,-6.37171 -0.589681,-6.29215 -3.61082,-12.4658 -6.40763,-14.0973l-4.82215 -2.39791c-0.243037,2.45402 0.0831234,8.36865 0.460741,11.0375 0.775126,5.47665 1.22488,6.76328 3.45289,10.8229z"/>
    <path id="_509165744" class="fil0" d="M46.197 29.8055l5.75946 4.93733 -3.6415 -14.7603 4.22445 14.5303 0.668946 -1.4034c0.475387,-1.40855 0.835786,-3.1289 0.963638,-4.76475 0.383654,-4.90755 -1.62912,-10.5736 -4.1158,-12.7671l-4.35052 -3.47169c-0.612441,1.74925 -1.19609,6.28284 -1.23409,8.40882 -0.0777798,4.36269 0.165752,5.481 1.7254,9.29082z"/>
    <path id="_509166152" class="fil0" d="M55.9949 12.1007l-0.465491 5.17978 -3.82259 -8.23644 3.51731 8.44969 -0.753355 -0.241157c-0.68082,-0.346644 -1.42774,-0.88754 -2.05552,-1.51671 -1.88334,-1.8872 -3.11456,-5.37729 -2.93534,-7.63993l0.44283 -3.8029c0.853895,0.418784 2.68182,2.03979 3.44843,2.92585 1.57301,1.81823 1.87503,2.42493 2.62373,4.88182z"/>
    <path id="_509165888" class="fil0" d="M69.6189 28.5141l-5.71375 3.92976 3.49287 -14.1338 -4.07879 13.801 -0.683987 -1.52225c-0.490329,-1.49335 -0.868739,-3.27853 -1.01351,-4.93842 -0.434518,-4.97939 1.52175,-10.2968 3.98804,-12.0553l4.31876 -2.71032c0.630946,1.8584 1.26179,6.49877 1.32176,8.63336 0.122706,4.38031 -0.109545,5.45676 -1.6314,8.99593z"/>
    <path id="_509166200" class="fil0" d="M76.7755 44.0817l-6.12432 3.23795 4.61295 -16.3971 -5.18641 15.825 -0.585525 -2.06136c-0.389987,-1.97191 -0.644009,-4.27126 -0.668847,-6.35152 -0.0747121,-6.24069 2.59414,-9.63598 5.24232,-11.11l4.33202 -4.7227c0.50636,2.45966 0.806693,8.33817 0.709716,10.9783 -0.199199,5.41747 -0.516058,6.6757 -2.33191,10.6014z"/>
    <path id="_509165504" class="fil0" d="M58.5879 10.5494l2.27996 5.45893 1.32364 -10.2439 -0.919404 10.3704 0.734455 -0.51962c0.619665,-0.609275 1.24448,-1.45199 1.70987,-2.34952 1.39598,-2.69241 1.53541,-6.89984 0.565635,-9.2928l-1.78349 -3.973c-0.782745,0.746824 -2.2098,3.13148 -2.73773,4.35517 -1.08318,2.51132 -1.20282,3.27289 -1.17293,6.19428z"/>
   </g>
   <path id="_509165384" class="fil1" d="M143.352 70.3016l-2.29539 0.276484 0 1.35511 3.67811 0c0.506954,0 0.954039,0.00920295 1.34581,0.0276088 0.391769,0.0138539 0.751277,0.0323588 1.08318,0.0553167 0.327249,0.0230569 0.65905,0.0415617 0.986299,0.0553167 0.327249,0.0185049 0.682206,0.0277078 1.06477,0.0277078 1.63159,-0.00920295 2.99591,-0.179804 4.09739,-0.520808 1.09703,-0.345754 1.9727,-0.811245 2.61799,-1.40122 0.649946,-0.589978 1.11544,-1.26288 1.39192,-2.02336 0.281234,-0.755928 0.419476,-1.54867 0.410273,-2.38752 -0.00465095,-0.99095 -0.23047,-1.84821 -0.682206,-2.57653 -0.451637,-0.72357 -1.10148,-1.27664 -1.94964,-1.66385 -0.848057,-0.382566 -1.87127,-0.566921 -3.06498,-0.543865 0.889519,-0.170502 1.64545,-0.497751 2.27689,-0.977096 0.631441,-0.479345 1.11079,-1.07397 1.44724,-1.78834 0.336452,-0.714466 0.502402,-1.50721 0.506954,-2.37832 0.00465095,-0.72822 -0.115185,-1.37807 -0.364061,-1.95429 -0.244323,-0.576124 -0.645295,-1.06922 -1.19836,-1.47029 -0.553068,-0.405524 -1.28139,-0.714367 -2.19396,-0.92643 -0.912576,-0.211965 -2.02801,-0.322598 -3.35076,-0.322598 -0.456387,0.00465095 -0.912675,0.0230569 -1.36431,0.0553167 -0.451736,0.0369108 -0.921878,0.0737226 -1.41043,0.105982 -0.483897,0.0369108 -1.00936,0.0553167 -1.56707,0.0599676l-3.73333 0 0 1.38272 2.26769 0.331801 0 17.2012zm2.93139 -9.84508l0 -7.68793c0.170502,-0.0138539 0.387118,-0.0322598 0.654498,-0.0553167 0.271932,-0.0277078 0.576124,-0.0506657 0.912576,-0.0737226 0.336452,-0.0230569 0.686758,-0.0369108 1.06002,-0.0369108 1.09238,0 1.95894,0.138242 2.60414,0.414825 0.645295,0.276583 1.10623,0.691409 1.38282,1.24448 0.281135,0.553068 0.419377,1.24448 0.410174,2.07403 0,0.875765 -0.147544,1.62704 -0.437882,2.24463 -0.294989,0.617686 -0.732871,1.08783 -1.31355,1.41043 -0.585426,0.327249 -1.309,0.488548 -2.17556,0.493199 -0.184356,0 -0.410174,0 -0.677555,0.004552 -0.267281,0 -0.553068,0 -0.848057,0 -0.299541,0.00465095 -0.585327,0 -0.861911,-0.004552 -0.276484,-0.00465095 -0.511605,-0.0138539 -0.709716,-0.0277078zm0 9.928l0 -8.24109c0.193559,-0.0137549 0.437783,-0.0229579 0.741975,-0.0322598 0.29964,-0.00920295 0.622238,-0.0137549 0.967992,-0.0184059 0.345655,0 0.682107,-0.004552 1.00936,-0.004552 0.322598,0 0.608384,0 0.848057,0 1.07397,-0.00465095 1.95429,0.138242 2.6364,0.419377 0.682206,0.285786 1.18461,0.723668 1.50255,1.3274 0.322697,0.599181 0.483996,1.37352 0.479345,2.31835 0.00465095,0.917227 -0.165851,1.70542 -0.516157,2.36912 -0.350306,0.668352 -0.917227,1.17996 -1.69621,1.53947 -0.778886,0.359509 -1.8113,0.539214 -3.09724,0.543865 -0.304192,0 -0.636092,0 -0.995601,-0.00920295 -0.36416,-0.00465095 -0.714367,-0.0230569 -1.05092,-0.0553167 -0.331801,-0.0322598 -0.608384,-0.0830245 -0.829552,-0.156747z"/>
   <path id="_5091653841" class="fil1" d="M172.555 72.1821c0.580775,-0.00920295 1.08773,-0.0553167 1.52561,-0.147445 0.437882,-0.0875765 0.811245,-0.179804 1.12919,-0.26738l0.0277078 -1.24448 -1.6593 0 0 -13.9378 -0.636092 -0.3319 -0.0276088 0 -4.20347 0.359509 0 1.21677 1.9911 0.442533 0 10.4811c-0.179705,0.161299 -0.400972,0.331801 -0.65905,0.516157 -0.253526,0.179804 -0.543964,0.350306 -0.866562,0.511704 -0.322598,0.161299 -0.672904,0.290338 -1.04627,0.391769 -0.377915,0.101331 -0.774334,0.152096 -1.18916,0.156648 -0.746626,0.00465095 -1.3274,-0.138242 -1.73302,-0.42858 -0.405622,-0.290437 -0.686758,-0.746725 -0.838854,-1.37352 -0.156648,-0.626889 -0.23047,-1.44734 -0.221168,-2.45669l0 -9.48547 -0.525459 -0.3319 -0.0277078 0 -3.87157 0.359509 0 1.21677 1.54867 0.442533 0 8.01983c-0.00465095,1.39657 0.147445,2.53497 0.456288,3.41073 0.313395,0.875666 0.815797,1.51641 1.51176,1.92658 0.69131,0.410174 1.61319,0.613035 2.76088,0.608384 0.506954,-0.004552 1.0047,-0.0737226 1.49325,-0.216616 0.488647,-0.138242 0.954138,-0.322598 1.39657,-0.548516 0.442533,-0.225819 0.843505,-0.474694 1.20757,-0.742074 0.368811,-0.26263 0.677555,-0.530011 0.935732,-0.788089l0 0.940185c0,0.479345 0.129039,0.815896 0.387118,1.01401 0.258078,0.19821 0.636092,0.290437 1.13384,0.285786z"/>
   <path id="_50916538412" class="fil1" d="M179.109 70.3292l-1.74233 0.248875 0 1.35511 6.52647 0 0 -1.35511 -1.88047 -0.248875 0 -10.4811c0.336452,-0.258078 0.732871,-0.511605 1.19371,-0.76048 0.456387,-0.253526 0.940284,-0.465491 1.44734,-0.636092 0.511605,-0.170502 1.01401,-0.258078 1.50711,-0.262729 0.589978,0 1.07397,0.0875765 1.44269,0.262729 0.373363,0.175153 0.65905,0.442533 0.861911,0.806594 0.19821,0.359509 0.336452,0.815797 0.410174,1.36896 0.0737226,0.553068 0.110633,1.20757 0.105982,1.95884l0 7.77095 -1.71452 0.221168 0 1.35511 6.55408 0 0 -1.38272 -1.93579 -0.193559 0 -7.74334c0.00465095,-1.11079 -0.0599676,-2.06948 -0.19821,-2.87607 -0.13369,-0.806594 -0.368712,-1.47029 -0.695961,-1.98645 -0.3319,-0.520907 -0.783537,-0.903472 -1.35511,-1.15235 -0.576124,-0.248875 -1.29969,-0.373264 -2.17546,-0.373264 -0.534662,0.004552 -1.07853,0.0737226 -1.63159,0.216616 -0.548516,0.138242 -1.08318,0.322598 -1.59478,0.548417 -0.516157,0.23047 -0.99095,0.479345 -1.42418,0.751277 -0.433231,0.271932 -0.802042,0.539313 -1.10158,0.806594l0.0276088 -0.663701 0 -1.16145 -0.580676 -0.497751 -0.0830245 0 -3.9546 0.497751 0 1.49335 1.9912 0.497751 0 11.6149z"/>
   <path id="_509165384123" class="fil1" d="M201.786 72.2374c0.705164,-0.004552 1.35501,-0.115185 1.95884,-0.322598 0.603733,-0.207413 1.13839,-0.479345 1.61319,-0.811245 0.474694,-0.336452 0.871114,-0.695961 1.18451,-1.07853l0 0.884967c0,0.373363 0.0506657,0.654498 0.152096,0.838854 0.105982,0.189007 0.253526,0.313395 0.451736,0.377915 0.198111,0.0599676 0.437783,0.0875765 0.72357,0.0830245 0.557719,-0.00930191 1.08773,-0.0553167 1.58558,-0.147544 0.502402,-0.0875765 0.940185,-0.179705 1.3182,-0.267281l0 -1.27218 -1.60398 0 0 -20.7962 -0.608384 -0.442434 -0.0830245 0 -4.97781 0.497751 0 1.18916 2.82075 0.331801 0 5.17146c-0.373264,-0.0967794 -0.778886,-0.170601 -1.21212,-0.225918 -0.43333,-0.0506657 -0.889618,-0.0782745 -1.35976,-0.0782745 -1.26743,0.00920295 -2.39673,0.23047 -3.38767,0.663701 -0.99095,0.437882 -1.8298,1.04162 -2.52111,1.81595 -0.686758,0.769683 -1.21222,1.6685 -1.56717,2.68706 -0.359509,1.02331 -0.539214,2.12024 -0.543865,3.29555 0.00465095,1.30434 0.170601,2.43819 0.493199,3.39233 0.327249,0.95869 0.769782,1.74678 1.33205,2.36902 0.562271,0.622238 1.20757,1.08773 1.93123,1.39202 0.72357,0.299541 1.49335,0.451637 2.29995,0.451637zm1.10614 -1.96349c-0.562271,0.00465095 -1.09238,-0.110633 -1.59013,-0.336452 -0.493199,-0.225819 -0.92643,-0.580775 -1.30434,-1.06467 -0.373363,-0.483996 -0.668352,-1.10623 -0.875765,-1.87592 -0.207413,-0.769683 -0.304192,-1.69611 -0.294989,-2.77929 0.0184059,-1.1661 0.147544,-2.1617 0.387217,-2.99126 0.244225,-0.829651 0.576124,-1.50255 1.00015,-2.02346 0.42858,-0.520808 0.921779,-0.907925 1.4887,-1.1476 0.566921,-0.244323 1.18451,-0.368811 1.85286,-0.36416 0.419476,0 0.820448,0.0414627 1.20301,0.124487 0.382566,0.0782745 0.709815,0.184356 0.986299,0.313395 0.276583,0.129039 0.470142,0.267281 0.576124,0.419377l0 10.1216c-0.184356,0.244323 -0.447085,0.493199 -0.783537,0.737522 -0.336452,0.244225 -0.72822,0.447085 -1.17986,0.608384 -0.447085,0.16595 -0.935732,0.253526 -1.46574,0.258078z"/>
   <path id="_5091653841234" class="fil1" d="M219.789 72.2374c0.571572,-0.004552 1.13384,-0.0598686 1.69156,-0.175153 0.553068,-0.115185 1.08318,-0.271932 1.58093,-0.465491 0.497751,-0.193559 0.944836,-0.410174 1.34126,-0.654498 0.39642,-0.244323 0.719018,-0.493199 0.972544,-0.751277l-0.525459 -1.21677c-0.294989,0.235022 -0.668352,0.456288 -1.12464,0.65905 -0.456288,0.202762 -0.949487,0.368712 -1.48415,0.497751 -0.530011,0.129138 -1.05082,0.193658 -1.56707,0.19821 -0.765131,-0.004552 -1.44259,-0.156648 -2.02801,-0.451637 -0.580676,-0.29964 -1.06932,-0.719018 -1.46564,-1.26288 -0.39642,-0.543964 -0.700612,-1.18461 -0.903373,-1.92668 -0.207413,-0.737423 -0.318046,-1.55322 -0.3319,-2.44274l9.51318 0c0.0691706,-0.313494 0.119836,-0.682206 0.147544,-1.10158 0.0322598,-0.414825 0.0460147,-0.908024 0.0460147,-1.47029 -0.0368118,-1.18461 -0.276484,-2.18476 -0.714367,-3.00056 -0.437882,-0.815797 -1.05547,-1.43804 -1.86206,-1.86206 -0.806594,-0.424028 -1.77914,-0.640644 -2.92683,-0.640644 -1.06002,0.004552 -2.03257,0.193559 -2.91288,0.571473 -0.880317,0.378014 -1.6409,0.921878 -2.28154,1.62704 -0.645295,0.705164 -1.13839,1.55322 -1.4887,2.53962 -0.350306,0.986299 -0.53011,2.08788 -0.534662,3.3093 0,1.17996 0.142893,2.25848 0.424028,3.23558 0.281135,0.977096 0.705164,1.82525 1.27209,2.53507 0.571572,0.714367 1.28139,1.26743 2.1433,1.6592 0.85726,0.387217 1.86662,0.585426 3.01886,0.589978zm-3.81626 -9.45786c0.0506657,-0.95869 0.175153,-1.76063 0.373264,-2.41058 0.19821,-0.654498 0.456387,-1.17531 0.778985,-1.56242 0.322598,-0.387217 0.69131,-0.668352 1.11544,-0.838854 0.424028,-0.170601 0.884869,-0.253526 1.38272,-0.248875 0.732772,0.004552 1.3274,0.175054 1.77449,0.506954 0.447085,0.327249 0.774334,0.783537 0.977096,1.36431 0.207413,0.580676 0.313395,1.24903 0.318046,2.00031 0,0.193559 -0.00465095,0.391769 -0.0184059,0.594629 -0.0138539,0.202762 -0.0369108,0.400972 -0.0645196,0.59453l-6.63711 0z"/>
   <path id="_50916538412345" class="fil1" d="M230.104 67.5638l-1.79754 0 0 3.53977c0.23047,0.10143 0.539313,0.212064 0.917227,0.341103 0.382566,0.124388 0.806594,0.248875 1.28594,0.368712 0.474793,0.124487 0.972544,0.221267 1.49335,0.29964 0.525459,0.0782745 1.04171,0.119836 1.55787,0.124388 1.23983,-0.004552 2.3046,-0.193559 3.18947,-0.557719 0.884967,-0.368712 1.56252,-0.889519 2.03732,-1.55787 0.474694,-0.668253 0.714367,-1.45644 0.719018,-2.36447 -0.00465095,-0.695961 -0.142893,-1.29049 -0.405622,-1.79289 -0.262729,-0.502402 -0.622238,-0.935633 -1.07397,-1.29979 -0.451637,-0.359509 -0.963242,-0.677555 -1.53016,-0.954039 -0.566921,-0.271932 -1.16155,-0.53011 -1.77449,-0.765131 -0.460939,-0.189007 -0.908024,-0.377915 -1.3367,-0.562369 -0.42858,-0.184356 -0.815797,-0.391769 -1.1569,-0.622139 -0.345655,-0.23047 -0.617587,-0.507053 -0.820349,-0.838854 -0.202861,-0.327249 -0.304192,-0.732871 -0.308843,-1.21222 0.00465095,-0.428679 0.124487,-0.79274 0.36416,-1.10158 0.239673,-0.308843 0.571473,-0.543865 0.995502,-0.709815 0.428679,-0.16595 0.921878,-0.244323 1.4888,-0.235022 0.391769,0 0.755829,0.0368118 1.09228,0.110534 0.336551,0.0691706 0.617686,0.16595 0.848156,0.285786 0.235022,0.119836 0.387118,0.253526 0.465491,0.405622l0.553068 2.04642 1.68691 0 0 -3.42914c-0.23047,-0.0737226 -0.548417,-0.170502 -0.95869,-0.29964 -0.410174,-0.133591 -0.912576,-0.248875 -1.50711,-0.359509 -0.599181,-0.105982 -1.28594,-0.165851 -2.06948,-0.170502 -0.797391,0 -1.53947,0.0967794 -2.21702,0.290338 -0.682107,0.189007 -1.27674,0.460939 -1.78369,0.820448 -0.507053,0.354957 -0.898821,0.783537 -1.18461,1.28139 -0.281135,0.497751 -0.424028,1.05547 -0.42858,1.67306 0,0.825 0.152096,1.53947 0.451637,2.13865 0.304192,0.603733 0.755928,1.12454 1.36431,1.56242 0.603832,0.442533 1.36431,0.829651 2.27689,1.1661 0.663701,0.258177 1.25833,0.507053 1.77914,0.742074 0.516157,0.23047 0.95869,0.474793 1.3182,0.719018 0.359509,0.248875 0.635993,0.520808 0.825,0.820448 0.184356,0.299541 0.281135,0.645295 0.281135,1.03706 0.00465095,0.456288 -0.0967794,0.852609 -0.304192,1.19836 -0.207413,0.341004 -0.534662,0.608384 -0.986299,0.801943 -0.451736,0.193559 -1.04627,0.290338 -1.77914,0.294989 -0.465491,-0.00465095 -0.908024,-0.0598686 -1.33205,-0.161299 -0.419377,-0.105982 -0.783537,-0.239673 -1.08773,-0.405622 -0.308843,-0.161299 -0.525459,-0.331801 -0.649847,-0.511605l-0.49785 -2.15705z"/>
   <polygon id="_509165384123456" class="fil1" points="240.724,57.8847 241.968,58.2442 247.527,72.1545 249.877,72.1545 255.215,58.2442 256.653,57.8847 256.653,56.585 251.039,56.585 251.039,57.8847 252.919,58.2442 250.126,66.3193 249.131,69.7209 247.969,66.2087 245.176,58.2442 247.14,57.8847 247.14,56.585 240.724,56.585 "/>
   <path id="_5091653841234567" class="fil1" d="M264.507 72.2374c0.571572,-0.004552 1.13384,-0.0598686 1.69156,-0.175153 0.553068,-0.115185 1.08318,-0.271932 1.58093,-0.465491 0.497751,-0.193559 0.944836,-0.410174 1.34126,-0.654498 0.39642,-0.244323 0.719018,-0.493199 0.972544,-0.751277l-0.525459 -1.21677c-0.294989,0.235022 -0.668352,0.456288 -1.12464,0.65905 -0.456288,0.202762 -0.949487,0.368712 -1.48415,0.497751 -0.530011,0.129138 -1.05082,0.193658 -1.56707,0.19821 -0.765131,-0.004552 -1.44259,-0.156648 -2.02801,-0.451637 -0.580676,-0.29964 -1.06932,-0.719018 -1.46564,-1.26288 -0.39642,-0.543964 -0.700612,-1.18461 -0.903373,-1.92668 -0.207413,-0.737423 -0.318046,-1.55322 -0.3319,-2.44274l9.51318 0c0.0691706,-0.313494 0.119836,-0.682206 0.147544,-1.10158 0.0322598,-0.414825 0.0460147,-0.908024 0.0460147,-1.47029 -0.0368118,-1.18461 -0.276484,-2.18476 -0.714367,-3.00056 -0.437882,-0.815797 -1.05547,-1.43804 -1.86206,-1.86206 -0.806594,-0.424028 -1.77914,-0.640644 -2.92683,-0.640644 -1.06002,0.004552 -2.03257,0.193559 -2.91288,0.571473 -0.880317,0.378014 -1.6409,0.921878 -2.28154,1.62704 -0.645295,0.705164 -1.13839,1.55322 -1.4887,2.53962 -0.350306,0.986299 -0.53011,2.08788 -0.534662,3.3093 0,1.17996 0.142893,2.25848 0.424028,3.23558 0.281135,0.977096 0.705164,1.82525 1.27209,2.53507 0.571572,0.714367 1.28139,1.26743 2.1433,1.6592 0.85726,0.387217 1.86662,0.585426 3.01886,0.589978zm-3.81626 -9.45786c0.0506657,-0.95869 0.175153,-1.76063 0.373264,-2.41058 0.19821,-0.654498 0.456387,-1.17531 0.778985,-1.56242 0.322598,-0.387217 0.69131,-0.668352 1.11544,-0.838854 0.424028,-0.170601 0.884869,-0.253526 1.38272,-0.248875 0.732772,0.004552 1.3274,0.175054 1.77449,0.506954 0.447085,0.327249 0.774334,0.783537 0.977096,1.36431 0.207413,0.580676 0.313395,1.24903 0.318046,2.00031 0,0.193559 -0.00465095,0.391769 -0.0184059,0.594629 -0.0138539,0.202762 -0.0369108,0.400972 -0.0645196,0.59453l-6.63711 0z"/>
   <path id="_50916538412345678" class="fil1" d="M272.803 71.9332l8.46226 0 0 -1.3274 -3.51216 -0.221267 0 -9.95561c0.258177,-0.193559 0.585426,-0.39642 0.981747,-0.613035 0.39642,-0.216616 0.866562,-0.400972 1.41043,-0.553068 0.543865,-0.156747 1.1661,-0.239673 1.86671,-0.244323 0.391769,0.00465095 0.72357,0.0507647 0.995502,0.129039 0.271932,0.0830245 0.465491,0.170601 0.580775,0.258177l0 -3.09734c-0.110633,-0.0414627 -0.235121,-0.0737226 -0.382566,-0.10143 -0.147445,-0.0230569 -0.322598,-0.0368118 -0.530011,-0.0368118 -0.594629,0.004552 -1.14305,0.0967794 -1.65465,0.276484 -0.511704,0.179804 -0.977195,0.410273 -1.39657,0.686758 -0.419476,0.276583 -0.783537,0.562369 -1.09703,0.861911 -0.313395,0.304192 -0.571473,0.576124 -0.765032,0.825 -0.19821,0.248974 -0.327249,0.43333 -0.39642,0.557719l-0.0829255 0 0.0829255 -2.15705 0 -0.497751 -0.608384 -0.497751 -0.0553167 0 -3.81635 0.497751 0 1.49335 1.9911 0.497751 0 11.6979 -2.07403 0.165851 0 1.35511z"/>
   <path id="_509165384123456789" class="fil1" d="M292.216 72.2374c0.571572,-0.004552 1.13384,-0.0598686 1.69156,-0.175153 0.553068,-0.115185 1.08318,-0.271932 1.58093,-0.465491 0.497751,-0.193559 0.944836,-0.410174 1.34126,-0.654498 0.39642,-0.244323 0.719018,-0.493199 0.972544,-0.751277l-0.525459 -1.21677c-0.294989,0.235022 -0.668352,0.456288 -1.12464,0.65905 -0.456288,0.202762 -0.949487,0.368712 -1.48415,0.497751 -0.530011,0.129138 -1.05082,0.193658 -1.56707,0.19821 -0.765131,-0.004552 -1.44259,-0.156648 -2.02801,-0.451637 -0.580676,-0.29964 -1.06932,-0.719018 -1.46564,-1.26288 -0.39642,-0.543964 -0.700612,-1.18461 -0.903373,-1.92668 -0.207413,-0.737423 -0.318046,-1.55322 -0.3319,-2.44274l9.51318 0c0.0691706,-0.313494 0.119836,-0.682206 0.147544,-1.10158 0.0322598,-0.414825 0.0460147,-0.908024 0.0460147,-1.47029 -0.0368118,-1.18461 -0.276484,-2.18476 -0.714367,-3.00056 -0.437882,-0.815797 -1.05547,-1.43804 -1.86206,-1.86206 -0.806594,-0.424028 -1.77914,-0.640644 -2.92683,-0.640644 -1.06002,0.004552 -2.03257,0.193559 -2.91288,0.571473 -0.880317,0.378014 -1.6409,0.921878 -2.28154,1.62704 -0.645295,0.705164 -1.13839,1.55322 -1.4887,2.53962 -0.350306,0.986299 -0.53011,2.08788 -0.534662,3.3093 0,1.17996 0.142893,2.25848 0.424028,3.23558 0.281135,0.977096 0.705164,1.82525 1.27209,2.53507 0.571572,0.714367 1.28139,1.26743 2.1433,1.6592 0.85726,0.387217 1.86662,0.585426 3.01886,0.589978zm-3.81626 -9.45786c0.0506657,-0.95869 0.175153,-1.76063 0.373264,-2.41058 0.19821,-0.654498 0.456387,-1.17531 0.778985,-1.56242 0.322598,-0.387217 0.69131,-0.668352 1.11544,-0.838854 0.424028,-0.170601 0.884869,-0.253526 1.38272,-0.248875 0.732772,0.004552 1.3274,0.175054 1.77449,0.506954 0.447085,0.327249 0.774334,0.783537 0.977096,1.36431 0.207413,0.580676 0.313395,1.24903 0.318046,2.00031 0,0.193559 -0.00465095,0.391769 -0.0184059,0.594629 -0.0138539,0.202762 -0.0369108,0.400972 -0.0645196,0.59453l-6.63711 0z"/>
   <path id="_50916538412345678910" class="fil1" d="M303.721 53.8194l0.0277078 0c0.668253,-0.00920295 1.17531,-0.193559 1.52096,-0.55762 0.345655,-0.36416 0.520808,-0.861911 0.525459,-1.4888 0.00465095,-0.308744 -0.0553167,-0.599181 -0.170502,-0.866463 -0.119836,-0.26738 -0.313494,-0.483996 -0.580775,-0.649946 -0.26738,-0.161299 -0.626889,-0.248875 -1.07397,-0.253427 -0.424028,0.004552 -0.788089,0.0921284 -1.08773,0.271932 -0.299541,0.179705 -0.530011,0.419377 -0.69131,0.72822 -0.156747,0.304192 -0.239673,0.654498 -0.239673,1.04627 0,0.327249 0.0598686,0.622238 0.184356,0.889519 0.119836,0.262729 0.313395,0.479345 0.576124,0.636092 0.258078,0.156648 0.59453,0.239673 1.00936,0.244225zm-1.10614 16.5098l-2.24008 0.248875 0 1.35511 7.32852 0 0 -1.35511 -2.21237 -0.221168 0 -13.6337 -0.636092 -0.497751 -0.0553167 0 -4.2864 0.52536 0 1.46574 2.10174 0.497751 0 11.6149z"/>
   <path id="_5091653841234567891011" class="fil1" d="M311.326 70.3292l-1.74233 0.248875 0 1.35511 6.52647 0 0 -1.35511 -1.88047 -0.248875 0 -10.4811c0.336452,-0.258078 0.732871,-0.511605 1.19371,-0.76048 0.456387,-0.253526 0.940284,-0.465491 1.44734,-0.636092 0.511605,-0.170502 1.01401,-0.258078 1.50711,-0.262729 0.589978,0 1.07397,0.0875765 1.44269,0.262729 0.373363,0.175153 0.65905,0.442533 0.861911,0.806594 0.19821,0.359509 0.336452,0.815797 0.410174,1.36896 0.0737226,0.553068 0.110633,1.20757 0.105982,1.95884l0 7.77095 -1.71452 0.221168 0 1.35511 6.55408 0 0 -1.38272 -1.93579 -0.193559 0 -7.74334c0.00465095,-1.11079 -0.0599676,-2.06948 -0.19821,-2.87607 -0.13369,-0.806594 -0.368712,-1.47029 -0.695961,-1.98645 -0.3319,-0.520907 -0.783537,-0.903472 -1.35511,-1.15235 -0.576124,-0.248875 -1.29969,-0.373264 -2.17546,-0.373264 -0.534662,0.004552 -1.07853,0.0737226 -1.63159,0.216616 -0.548516,0.138242 -1.08318,0.322598 -1.59478,0.548417 -0.516157,0.23047 -0.99095,0.479345 -1.42418,0.751277 -0.433231,0.271932 -0.802042,0.539313 -1.10158,0.806594l0.0276088 -0.663701 0 -1.16145 -0.580676 -0.497751 -0.0830245 0 -3.9546 0.497751 0 1.49335 1.9912 0.497751 0 11.6149z"/>
   <path id="_509165384123456789101112" class="fil1" d="M331.292 53.8194l0.0277078 0c0.668253,-0.00920295 1.17531,-0.193559 1.52096,-0.55762 0.345655,-0.36416 0.520808,-0.861911 0.525459,-1.4888 0.00465095,-0.308744 -0.0553167,-0.599181 -0.170502,-0.866463 -0.119836,-0.26738 -0.313494,-0.483996 -0.580775,-0.649946 -0.26738,-0.161299 -0.626889,-0.248875 -1.07397,-0.253427 -0.424028,0.004552 -0.788089,0.0921284 -1.08773,0.271932 -0.299541,0.179705 -0.530011,0.419377 -0.69131,0.72822 -0.156747,0.304192 -0.239673,0.654498 -0.239673,1.04627 0,0.327249 0.0598686,0.622238 0.184356,0.889519 0.119836,0.262729 0.313395,0.479345 0.576124,0.636092 0.258078,0.156648 0.59453,0.239673 1.00936,0.244225zm-1.10614 16.5098l-2.24008 0.248875 0 1.35511 7.32852 0 0 -1.35511 -2.21237 -0.221168 0 -13.6337 -0.636092 -0.497751 -0.0553167 0 -4.2864 0.52536 0 1.46574 2.10174 0.497751 0 11.6149z"/>
   <path id="_50916538412345678910111213" class="fil1" d="M343.848 79.4c0.912576,-0.00465095 1.78379,-0.0967794 2.60879,-0.285786 0.829651,-0.184356 1.59468,-0.451736 2.29074,-0.797391 0.695961,-0.345655 1.30434,-0.755829 1.8205,-1.23062 0.516256,-0.470142 0.912675,-0.995601 1.19836,-1.57173 0.285786,-0.576124 0.428679,-1.18916 0.43333,-1.83901 0.004552,-0.825 -0.184356,-1.52561 -0.557719,-2.11094 -0.373363,-0.585327 -0.954138,-1.03241 -1.73302,-1.34591 -0.778985,-0.308744 -1.77449,-0.465491 -2.99135,-0.470043l-3.12495 0c-0.742074,0.004552 -1.3366,-0.0461137 -1.78369,-0.152195 -0.447085,-0.101331 -0.769683,-0.281135 -0.967893,-0.534563 -0.19821,-0.258177 -0.294989,-0.608483 -0.290437,-1.05557 0.00465095,-0.294989 0.0875765,-0.603733 0.244323,-0.917128 0.161299,-0.313494 0.373363,-0.599181 0.640644,-0.852708 0.318046,0.0829255 0.654498,0.142893 1.01401,0.184356 0.354957,0.0414627 0.72822,0.0645196 1.11544,0.0645196 0.92643,-0.00465095 1.77449,-0.13369 2.54417,-0.39642 0.774334,-0.262729 1.44734,-0.635993 2.01416,-1.12454 0.571572,-0.488647 1.01401,-1.06932 1.3275,-1.74688 0.313395,-0.677555 0.470142,-1.42883 0.474694,-2.26303 0,-0.470142 -0.0598686,-0.903472 -0.175153,-1.30444 -0.115185,-0.396321 -0.281135,-0.755829 -0.488548,-1.07388l3.04202 0 0 -2.43364 -0.940284 0c-0.483897,0.00465095 -0.930982,0.0783735 -1.35046,0.216616 -0.414825,0.138341 -0.774334,0.294989 -1.07853,0.479345 -0.304192,0.184356 -0.525459,0.345754 -0.668352,0.493199 -0.52536,-0.387118 -1.1568,-0.677555 -1.89432,-0.871114 -0.732871,-0.193559 -1.55787,-0.290338 -2.4751,-0.290338 -0.654498,0 -1.29514,0.0737226 -1.92193,0.225819 -0.622238,0.147445 -1.20301,0.368712 -1.74688,0.65905 -0.539214,0.290437 -1.01856,0.649946 -1.42883,1.07397 -0.410174,0.424028 -0.732871,0.912576 -0.963242,1.46564 -0.23047,0.548516 -0.350306,1.16155 -0.354957,1.8298 0.00465095,1.04171 0.244323,1.93588 0.72822,2.68716 0.483996,0.751277 1.18916,1.33205 2.12024,1.73758 -0.410273,0.207413 -0.769782,0.474793 -1.08773,0.806594 -0.313494,0.3319 -0.557719,0.705263 -0.737522,1.12464 -0.179705,0.414825 -0.271932,0.848057 -0.276484,1.30434 0,0.539313 0.110633,1.00025 0.327249,1.38737 0.211965,0.387217 0.530011,0.700612 0.944836,0.935633 -0.322598,0.161299 -0.636092,0.368712 -0.940284,0.617686 -0.304192,0.253427 -0.576124,0.543865 -0.820448,0.871114 -0.248875,0.327249 -0.442434,0.686758 -0.589879,1.07388 -0.142893,0.387217 -0.216616,0.797391 -0.221267,1.22607 -0.00465095,0.612936 0.115185,1.17065 0.350306,1.68226 0.235022,0.511605 0.617587,0.954138 1.14305,1.33205 0.525459,0.377915 1.21677,0.668352 2.07868,0.875765 0.85726,0.207314 1.90818,0.308744 3.148,0.313395zm0.193559 -14.4357c-0.797292,-0.00465095 -1.45179,-0.170601 -1.94964,-0.49785 -0.502402,-0.322598 -0.871114,-0.769683 -1.10614,-1.3366 -0.23047,-0.566921 -0.350306,-1.22142 -0.345655,-1.95429 0.004552,-0.861911 0.152096,-1.55322 0.433231,-2.07403 0.285786,-0.520907 0.677555,-0.89417 1.17065,-1.12464 0.493199,-0.235121 1.05557,-0.345655 1.68701,-0.341103 1.06922,-0.004552 1.87582,0.281135 2.42898,0.861911 0.553068,0.585327 0.834203,1.49335 0.834203,2.73318 0.00465095,1.20757 -0.244225,2.12944 -0.755928,2.77009 -0.511605,0.636092 -1.3089,0.95869 -2.39673,0.963341zm0.0553167 12.8317c-1.03241,0 -1.85286,-0.129039 -2.45659,-0.382566 -0.603832,-0.248875 -1.03241,-0.608384 -1.29059,-1.07853 -0.258078,-0.470142 -0.382566,-1.03241 -0.373264,-1.69156 0.004552,-0.396321 0.0552177,-0.765131 0.156648,-1.10614 0.105982,-0.341103 0.239673,-0.649946 0.414825,-0.931081 0.170502,-0.281135 0.354957,-0.534662 0.562271,-0.755829 0.248974,0.0553167 0.516256,0.0921284 0.811245,0.110534 0.290338,0.0185049 0.599181,0.0277078 0.931081,0.0277078l3.26319 0c0.668352,0 1.21222,0.0506657 1.63624,0.156747 0.428679,0.105982 0.755928,0.258078 0.986299,0.46084 0.235121,0.202861 0.39642,0.451736 0.483996,0.746725 0.0922274,0.294989 0.13369,0.631441 0.129039,1.01401 -0.004552,0.553068 -0.156648,1.04162 -0.451637,1.47029 -0.294989,0.424028 -0.691409,0.783537 -1.18916,1.07388 -0.502402,0.290437 -1.06012,0.511605 -1.68236,0.659149 -0.622238,0.152096 -1.26753,0.225819 -1.93123,0.225819z"/>
   <path id="_5091653841234567891011121314" class="fil1" d="M366.607 72.1821c0.580775,-0.00920295 1.08773,-0.0553167 1.52561,-0.147445 0.437882,-0.0875765 0.811245,-0.179804 1.12919,-0.26738l0.0277078 -1.24448 -1.6593 0 0 -13.9378 -0.636092 -0.3319 -0.0276088 0 -4.20347 0.359509 0 1.21677 1.9911 0.442533 0 10.4811c-0.179705,0.161299 -0.400972,0.331801 -0.65905,0.516157 -0.253526,0.179804 -0.543964,0.350306 -0.866562,0.511704 -0.322598,0.161299 -0.672904,0.290338 -1.04627,0.391769 -0.377915,0.101331 -0.774334,0.152096 -1.18916,0.156648 -0.746626,0.00465095 -1.3274,-0.138242 -1.73302,-0.42858 -0.405622,-0.290437 -0.686758,-0.746725 -0.838854,-1.37352 -0.156648,-0.626889 -0.23047,-1.44734 -0.221168,-2.45669l0 -9.48547 -0.525459 -0.3319 -0.0277078 0 -3.87157 0.359509 0 1.21677 1.54867 0.442533 0 8.01983c-0.00465095,1.39657 0.147445,2.53497 0.456288,3.41073 0.313395,0.875666 0.815797,1.51641 1.51176,1.92658 0.69131,0.410174 1.61319,0.613035 2.76088,0.608384 0.506954,-0.004552 1.0047,-0.0737226 1.49325,-0.216616 0.488647,-0.138242 0.954138,-0.322598 1.39657,-0.548516 0.442533,-0.225819 0.843505,-0.474694 1.20757,-0.742074 0.368811,-0.26263 0.677555,-0.530011 0.935732,-0.788089l0 0.940185c0,0.479345 0.129039,0.815896 0.387118,1.01401 0.258078,0.19821 0.636092,0.290437 1.13384,0.285786z"/>
   <path id="_509165384123456789101112131415" class="fil1" d="M373.161 70.3292l-1.74233 0.248875 0 1.35511 6.52647 0 0 -1.35511 -1.88047 -0.248875 0 -10.4811c0.336452,-0.258078 0.732871,-0.511605 1.19371,-0.76048 0.456387,-0.253526 0.940284,-0.465491 1.44734,-0.636092 0.511605,-0.170502 1.01401,-0.258078 1.50711,-0.262729 0.589978,0 1.07397,0.0875765 1.44269,0.262729 0.373363,0.175153 0.65905,0.442533 0.861911,0.806594 0.19821,0.359509 0.336452,0.815797 0.410174,1.36896 0.0737226,0.553068 0.110633,1.20757 0.105982,1.95884l0 7.77095 -1.71452 0.221168 0 1.35511 6.55408 0 0 -1.38272 -1.93579 -0.193559 0 -7.74334c0.00465095,-1.11079 -0.0599676,-2.06948 -0.19821,-2.87607 -0.13369,-0.806594 -0.368712,-1.47029 -0.695961,-1.98645 -0.3319,-0.520907 -0.783537,-0.903472 -1.35511,-1.15235 -0.576124,-0.248875 -1.29969,-0.373264 -2.17546,-0.373264 -0.534662,0.004552 -1.07853,0.0737226 -1.63159,0.216616 -0.548516,0.138242 -1.08318,0.322598 -1.59478,0.548417 -0.516157,0.23047 -0.99095,0.479345 -1.42418,0.751277 -0.433231,0.271932 -0.802042,0.539313 -1.10158,0.806594l0.0276088 -0.663701 0 -1.16145 -0.580676 -0.497751 -0.0830245 0 -3.9546 0.497751 0 1.49335 1.9912 0.497751 0 11.6149z"/>
   <path id="_50916538412345678910111213141516" class="fil1" d="M396.474 79.4c0.912576,-0.00465095 1.78379,-0.0967794 2.60879,-0.285786 0.829651,-0.184356 1.59468,-0.451736 2.29074,-0.797391 0.695961,-0.345655 1.30434,-0.755829 1.8205,-1.23062 0.516256,-0.470142 0.912675,-0.995601 1.19836,-1.57173 0.285786,-0.576124 0.428679,-1.18916 0.43333,-1.83901 0.004552,-0.825 -0.184356,-1.52561 -0.557719,-2.11094 -0.373363,-0.585327 -0.954138,-1.03241 -1.73302,-1.34591 -0.778985,-0.308744 -1.77449,-0.465491 -2.99135,-0.470043l-3.12495 0c-0.742074,0.004552 -1.3366,-0.0461137 -1.78369,-0.152195 -0.447085,-0.101331 -0.769683,-0.281135 -0.967893,-0.534563 -0.19821,-0.258177 -0.294989,-0.608483 -0.290437,-1.05557 0.00465095,-0.294989 0.0875765,-0.603733 0.244323,-0.917128 0.161299,-0.313494 0.373363,-0.599181 0.640644,-0.852708 0.318046,0.0829255 0.654498,0.142893 1.01401,0.184356 0.354957,0.0414627 0.72822,0.0645196 1.11544,0.0645196 0.92643,-0.00465095 1.77449,-0.13369 2.54417,-0.39642 0.774334,-0.262729 1.44734,-0.635993 2.01416,-1.12454 0.571572,-0.488647 1.01401,-1.06932 1.3275,-1.74688 0.313395,-0.677555 0.470142,-1.42883 0.474694,-2.26303 0,-0.470142 -0.0598686,-0.903472 -0.175153,-1.30444 -0.115185,-0.396321 -0.281135,-0.755829 -0.488548,-1.07388l3.04202 0 0 -2.43364 -0.940284 0c-0.483897,0.00465095 -0.930982,0.0783735 -1.35046,0.216616 -0.414825,0.138341 -0.774334,0.294989 -1.07853,0.479345 -0.304192,0.184356 -0.525459,0.345754 -0.668352,0.493199 -0.52536,-0.387118 -1.1568,-0.677555 -1.89432,-0.871114 -0.732871,-0.193559 -1.55787,-0.290338 -2.4751,-0.290338 -0.654498,0 -1.29514,0.0737226 -1.92193,0.225819 -0.622238,0.147445 -1.20301,0.368712 -1.74688,0.65905 -0.539214,0.290437 -1.01856,0.649946 -1.42883,1.07397 -0.410174,0.424028 -0.732871,0.912576 -0.963242,1.46564 -0.23047,0.548516 -0.350306,1.16155 -0.354957,1.8298 0.00465095,1.04171 0.244323,1.93588 0.72822,2.68716 0.483996,0.751277 1.18916,1.33205 2.12024,1.73758 -0.410273,0.207413 -0.769782,0.474793 -1.08773,0.806594 -0.313494,0.3319 -0.557719,0.705263 -0.737522,1.12464 -0.179705,0.414825 -0.271932,0.848057 -0.276484,1.30434 0,0.539313 0.110633,1.00025 0.327249,1.38737 0.211965,0.387217 0.530011,0.700612 0.944836,0.935633 -0.322598,0.161299 -0.636092,0.368712 -0.940284,0.617686 -0.304192,0.253427 -0.576124,0.543865 -0.820448,0.871114 -0.248875,0.327249 -0.442434,0.686758 -0.589879,1.07388 -0.142893,0.387217 -0.216616,0.797391 -0.221267,1.22607 -0.00465095,0.612936 0.115185,1.17065 0.350306,1.68226 0.235022,0.511605 0.617587,0.954138 1.14305,1.33205 0.525459,0.377915 1.21677,0.668352 2.07868,0.875765 0.85726,0.207314 1.90818,0.308744 3.148,0.313395zm0.193559 -14.4357c-0.797292,-0.00465095 -1.45179,-0.170601 -1.94964,-0.49785 -0.502402,-0.322598 -0.871114,-0.769683 -1.10614,-1.3366 -0.23047,-0.566921 -0.350306,-1.22142 -0.345655,-1.95429 0.004552,-0.861911 0.152096,-1.55322 0.433231,-2.07403 0.285786,-0.520907 0.677555,-0.89417 1.17065,-1.12464 0.493199,-0.235121 1.05557,-0.345655 1.68701,-0.341103 1.06922,-0.004552 1.87582,0.281135 2.42898,0.861911 0.553068,0.585327 0.834203,1.49335 0.834203,2.73318 0.00465095,1.20757 -0.244225,2.12944 -0.755928,2.77009 -0.511605,0.636092 -1.3089,0.95869 -2.39673,0.963341zm0.0553167 12.8317c-1.03241,0 -1.85286,-0.129039 -2.45659,-0.382566 -0.603832,-0.248875 -1.03241,-0.608384 -1.29059,-1.07853 -0.258078,-0.470142 -0.382566,-1.03241 -0.373264,-1.69156 0.004552,-0.396321 0.0552177,-0.765131 0.156648,-1.10614 0.105982,-0.341103 0.239673,-0.649946 0.414825,-0.931081 0.170502,-0.281135 0.354957,-0.534662 0.562271,-0.755829 0.248974,0.0553167 0.516256,0.0921284 0.811245,0.110534 0.290338,0.0185049 0.599181,0.0277078 0.931081,0.0277078l3.26319 0c0.668352,0 1.21222,0.0506657 1.63624,0.156747 0.428679,0.105982 0.755928,0.258078 0.986299,0.46084 0.235121,0.202861 0.39642,0.451736 0.483996,0.746725 0.0922274,0.294989 0.13369,0.631441 0.129039,1.01401 -0.004552,0.553068 -0.156648,1.04162 -0.451637,1.47029 -0.294989,0.424028 -0.691409,0.783537 -1.18916,1.07388 -0.502402,0.290437 -1.06012,0.511605 -1.68236,0.659149 -0.622238,0.152096 -1.26753,0.225819 -1.93123,0.225819z"/>
   <polygon id="_5091653841234567891011121314151617" class="fil1" points="143.38,107.276 141.167,107.58 141.167,108.935 147.887,108.935 147.887,107.58 145.26,107.303 145.26,91.4849 147.39,95.1353 156.792,108.935 158.977,108.935 158.977,90.1022 161.189,89.7704 161.189,88.3877 154.663,88.3877 154.663,89.7704 157.069,90.1022 157.069,104.814 155.52,101.883 146.311,88.3877 141.167,88.3877 141.167,89.7704 143.38,90.1022 "/>
   <path id="_509165384123456789101112131415161718" class="fil1" d="M163.125 104.787c0.004552,0.751277 0.129039,1.41033 0.373363,1.96805 0.239673,0.557719 0.576124,1.01866 1.0047,1.38737 0.424028,0.368712 0.912675,0.645295 1.47029,0.825 0.553167,0.179804 1.14305,0.271932 1.76993,0.271932 0.580775,-0.004552 1.12464,-0.0875765 1.62704,-0.248875 0.502402,-0.161299 0.954039,-0.359509 1.36421,-0.599181 0.405622,-0.239673 0.760579,-0.479345 1.05557,-0.72822 0.299541,-0.244323 0.534563,-0.456288 0.709716,-0.636092l0 0.912576c0,0.36416 0.0415617,0.636092 0.129138,0.820448 0.0875765,0.184356 0.230371,0.308843 0.424028,0.368712 0.193559,0.0599676 0.451637,0.0875765 0.774334,0.0830245 0.322598,-0.00465095 0.663701,-0.0277078 1.02776,-0.0691706 0.36416,-0.0461137 0.714466,-0.10143 1.04171,-0.16595 0.327249,-0.0598686 0.599181,-0.124388 0.806594,-0.179705l0 -1.21687 -1.63169 0 0 -8.87709c0.00465095,-0.981747 -0.0875765,-1.81595 -0.267281,-2.50736 -0.184356,-0.69131 -0.479345,-1.25823 -0.884967,-1.69156 -0.410174,-0.433231 -0.949487,-0.746626 -1.62239,-0.949388 -0.672904,-0.202861 -1.50255,-0.304291 -2.47965,-0.29964 -0.69606,0.00465095 -1.37817,0.0922274 -2.04187,0.253526 -0.668352,0.161299 -1.28129,0.359509 -1.84366,0.59453 -0.562271,0.235121 -1.03706,0.465491 -1.42883,0.691409 -0.387118,0.225819 -0.654498,0.400972 -0.797391,0.534662l0.691409 1.43804c0.221267,-0.119836 0.493199,-0.258177 0.811245,-0.414825 0.322598,-0.156747 0.686758,-0.304192 1.09228,-0.451736 0.40107,-0.147445 0.843505,-0.271932 1.32285,-0.368712 0.479345,-0.0967794 0.99095,-0.142893 1.53026,-0.147445 0.62679,0 1.14305,0.0645196 1.55322,0.193559 0.410174,0.129039 0.732871,0.336452 0.967893,0.613035 0.235121,0.281135 0.39642,0.640644 0.493199,1.08308 0.0967794,0.442533 0.142893,0.972544 0.138242,1.59478l0 0.774334c-0.954039,0.0137549 -1.88512,0.0829255 -2.77929,0.207413 -0.898722,0.124388 -1.73302,0.313395 -2.50736,0.562271 -0.774334,0.253526 -1.45179,0.576124 -2.03257,0.972544 -0.580775,0.400972 -1.03706,0.880317 -1.36431,1.44259 -0.327249,0.557719 -0.493199,1.21222 -0.497751,1.95894zm5.80746 2.57188c-0.520808,0.004552 -0.986398,-0.0967794 -1.39192,-0.290437 -0.405622,-0.198111 -0.723668,-0.511605 -0.95869,-0.940185 -0.235121,-0.424028 -0.354957,-0.986398 -0.359509,-1.67316 -0.00465095,-0.640644 0.211965,-1.21222 0.649847,-1.71452 0.433231,-0.502402 1.10158,-0.898821 2.00031,-1.18916 0.898821,-0.290437 2.04642,-0.437882 3.43379,-0.442533l0 4.75664c-0.327249,0.262729 -0.686758,0.506954 -1.08308,0.732772 -0.39642,0.225918 -0.792839,0.405622 -1.18916,0.543964 -0.39642,0.142794 -0.765131,0.211965 -1.10158,0.216616z"/>
   <path id="_50916538412345678910111213141516171819" class="fil1" d="M178.307 101.413c0.00920295,1.11079 0.156747,2.1433 0.447085,3.08813 0.290437,0.949487 0.72822,1.77449 1.30444,2.4843 0.580676,0.709815 1.30434,1.25823 2.17081,1.65465 0.871114,0.391769 1.88512,0.594629 3.04667,0.599181 0.719018,-0.00920295 1.41033,-0.110633 2.07868,-0.313395 0.668352,-0.202861 1.26753,-0.456288 1.79754,-0.765131 0.534662,-0.304192 0.954039,-0.617587 1.26753,-0.940284l-0.525459 -1.10614c-0.276583,0.189007 -0.617587,0.377915 -1.01866,0.562271 -0.400972,0.184356 -0.852609,0.336452 -1.35501,0.460939 -0.49785,0.124487 -1.03251,0.189007 -1.60864,0.193559 -0.654498,0 -1.25823,-0.138242 -1.80675,-0.410174 -0.553068,-0.276583 -1.03706,-0.695961 -1.44724,-1.25368 -0.410174,-0.557719 -0.723668,-1.25833 -0.949487,-2.10639 -0.225819,-0.843406 -0.336452,-1.83901 -0.331801,-2.9775 0.0137549,-1.29049 0.193559,-2.37822 0.543865,-3.25398 0.345655,-0.880317 0.829552,-1.54402 1.44724,-1.9911 0.622238,-0.447085 1.35046,-0.672904 2.18466,-0.672904 0.336452,-0.00465095 0.654498,0.0184059 0.95869,0.0645196 0.29964,0.0460147 0.553167,0.124388 0.760579,0.239673 0.202762,0.110633 0.331801,0.267281 0.382467,0.470142l0.608483 2.82075 1.79754 0 0.110534 -4.25879c-0.248875,-0.0875765 -0.576124,-0.19821 -0.981648,-0.327249 -0.40107,-0.129138 -0.866562,-0.244323 -1.39202,-0.341103 -0.52536,-0.10143 -1.09693,-0.156747 -1.71917,-0.161299 -1.27209,0.00920295 -2.39673,0.225819 -3.36462,0.649847 -0.967893,0.424028 -1.78369,1.01401 -2.43819,1.76993 -0.659149,0.755829 -1.15235,1.62694 -1.4796,2.61789 -0.331801,0.995601 -0.4931,2.06027 -0.488548,3.20332z"/>
   <path id="_5091653841234567891011121314151617181920" class="fil1" d="M194.319 107.359l-1.6593 0.221168 0 1.35511 6.44355 0 0 -1.35511 -1.90818 -0.248875 0 -10.4811c0.345655,-0.271932 0.746626,-0.534662 1.20291,-0.788188 0.456387,-0.248875 0.935732,-0.456288 1.43804,-0.617587 0.502402,-0.16595 0.995601,-0.248875 1.4796,-0.253526 0.612936,0 1.10614,0.0875765 1.4887,0.262729 0.382566,0.175153 0.672904,0.442533 0.871114,0.806594 0.202762,0.359509 0.341103,0.815797 0.414825,1.36896 0.0737226,0.553068 0.105982,1.20757 0.10143,1.95884l0 7.74324 -1.79754 0.248875 0 1.35511 6.6094 0 0 -1.35511 -1.93579 -0.248875 0 -7.71563c0.004552,-1.11079 -0.0599676,-2.06948 -0.19821,-2.87607 -0.13369,-0.806594 -0.368712,-1.47029 -0.700612,-1.98645 -0.331801,-0.520907 -0.783537,-0.903472 -1.36431,-1.15235 -0.580676,-0.248875 -1.3089,-0.373264 -2.18931,-0.373264 -0.589978,0.004552 -1.1661,0.0829255 -1.73302,0.235022 -0.562271,0.147445 -1.09228,0.341103 -1.58548,0.571572 -0.493199,0.235022 -0.931081,0.479345 -1.3182,0.732772 -0.382566,0.253526 -0.691409,0.488548 -0.921878,0.700612l0.110633 -2.35061 0 -6.41584 -0.608384 -0.414825 -0.0553167 0 -4.50766 0.52536 0 1.18916 2.323 0.304192 0 19.0541z"/>
   <path id="_509165384123456789101112131415161718192021" class="fil1" d="M212.544 107.359l-1.6593 0.221168 0 1.35511 6.44355 0 0 -1.35511 -1.90818 -0.248875 0 -10.4811c0.345655,-0.271932 0.746626,-0.534662 1.20291,-0.788188 0.456387,-0.248875 0.935732,-0.456288 1.43804,-0.617587 0.502402,-0.16595 0.995601,-0.248875 1.4796,-0.253526 0.612936,0 1.10614,0.0875765 1.4887,0.262729 0.382566,0.175153 0.672904,0.442533 0.871114,0.806594 0.202762,0.359509 0.341103,0.815797 0.414825,1.36896 0.0737226,0.553068 0.105982,1.20757 0.10143,1.95884l0 7.74324 -1.79754 0.248875 0 1.35511 6.6094 0 0 -1.35511 -1.93579 -0.248875 0 -7.71563c0.004552,-1.11079 -0.0599676,-2.06948 -0.19821,-2.87607 -0.13369,-0.806594 -0.368712,-1.47029 -0.700612,-1.98645 -0.331801,-0.520907 -0.783537,-0.903472 -1.36431,-1.15235 -0.580676,-0.248875 -1.3089,-0.373264 -2.18931,-0.373264 -0.589978,0.004552 -1.1661,0.0829255 -1.73302,0.235022 -0.562271,0.147445 -1.09228,0.341103 -1.58548,0.571572 -0.493199,0.235022 -0.931081,0.479345 -1.3182,0.732772 -0.382566,0.253526 -0.691409,0.488548 -0.921878,0.700612l0.110633 -2.35061 0 -6.41584 -0.608384 -0.414825 -0.0553167 0 -4.50766 0.52536 0 1.18916 2.323 0.304192 0 19.0541z"/>
   <path id="_50916538412345678910111213141516171819202122" class="fil1" d="M229.275 104.787c0.004552,0.751277 0.129039,1.41033 0.373363,1.96805 0.239673,0.557719 0.576124,1.01866 1.0047,1.38737 0.424028,0.368712 0.912675,0.645295 1.47029,0.825 0.553167,0.179804 1.14305,0.271932 1.76993,0.271932 0.580775,-0.004552 1.12464,-0.0875765 1.62704,-0.248875 0.502402,-0.161299 0.954039,-0.359509 1.36421,-0.599181 0.405622,-0.239673 0.760579,-0.479345 1.05557,-0.72822 0.299541,-0.244323 0.534563,-0.456288 0.709716,-0.636092l0 0.912576c0,0.36416 0.0415617,0.636092 0.129138,0.820448 0.0875765,0.184356 0.230371,0.308843 0.424028,0.368712 0.193559,0.0599676 0.451637,0.0875765 0.774334,0.0830245 0.322598,-0.00465095 0.663701,-0.0277078 1.02776,-0.0691706 0.36416,-0.0461137 0.714466,-0.10143 1.04171,-0.16595 0.327249,-0.0598686 0.599181,-0.124388 0.806594,-0.179705l0 -1.21687 -1.63169 0 0 -8.87709c0.00465095,-0.981747 -0.0875765,-1.81595 -0.267281,-2.50736 -0.184356,-0.69131 -0.479345,-1.25823 -0.884967,-1.69156 -0.410174,-0.433231 -0.949487,-0.746626 -1.62239,-0.949388 -0.672904,-0.202861 -1.50255,-0.304291 -2.47965,-0.29964 -0.69606,0.00465095 -1.37817,0.0922274 -2.04187,0.253526 -0.668352,0.161299 -1.28129,0.359509 -1.84366,0.59453 -0.562271,0.235121 -1.03706,0.465491 -1.42883,0.691409 -0.387118,0.225819 -0.654498,0.400972 -0.797391,0.534662l0.691409 1.43804c0.221267,-0.119836 0.493199,-0.258177 0.811245,-0.414825 0.322598,-0.156747 0.686758,-0.304192 1.09228,-0.451736 0.40107,-0.147445 0.843505,-0.271932 1.32285,-0.368712 0.479345,-0.0967794 0.99095,-0.142893 1.53026,-0.147445 0.62679,0 1.14305,0.0645196 1.55322,0.193559 0.410174,0.129039 0.732871,0.336452 0.967893,0.613035 0.235121,0.281135 0.39642,0.640644 0.493199,1.08308 0.0967794,0.442533 0.142893,0.972544 0.138242,1.59478l0 0.774334c-0.954039,0.0137549 -1.88512,0.0829255 -2.77929,0.207413 -0.898722,0.124388 -1.73302,0.313395 -2.50736,0.562271 -0.774334,0.253526 -1.45179,0.576124 -2.03257,0.972544 -0.580775,0.400972 -1.03706,0.880317 -1.36431,1.44259 -0.327249,0.557719 -0.493199,1.21222 -0.497751,1.95894zm5.80746 2.57188c-0.520808,0.004552 -0.986398,-0.0967794 -1.39192,-0.290437 -0.405622,-0.198111 -0.723668,-0.511605 -0.95869,-0.940185 -0.235121,-0.424028 -0.354957,-0.986398 -0.359509,-1.67316 -0.00465095,-0.640644 0.211965,-1.21222 0.649847,-1.71452 0.433231,-0.502402 1.10158,-0.898821 2.00031,-1.18916 0.898821,-0.290437 2.04642,-0.437882 3.43379,-0.442533l0 4.75664c-0.327249,0.262729 -0.686758,0.506954 -1.08308,0.732772 -0.39642,0.225918 -0.792839,0.405622 -1.18916,0.543964 -0.39642,0.142794 -0.765131,0.211965 -1.10158,0.216616z"/>
   <polygon id="_5091653841234567891011121314151617181920212223" class="fil1" points="246.808,107.331 244.568,107.58 244.568,108.935 252.034,108.935 252.034,107.58 249.684,107.359 249.684,86.7008 249.075,86.286 249.02,86.286 244.568,86.8113 244.568,88.0005 246.808,88.3047 "/>
   <path id="_509165384123456789101112131415161718192021222324" class="fil1" d="M258.727 109.212c0.433231,-0.00465095 0.889519,-0.0461137 1.36431,-0.13369 0.474694,-0.0875765 0.935633,-0.202861 1.38727,-0.345655 0.451736,-0.142893 0.857359,-0.29964 1.22142,-0.46559 0.36416,-0.165851 0.654498,-0.331801 0.866562,-0.4931l-0.414825 -1.24448c-0.207413,0.0967794 -0.483996,0.188908 -0.820448,0.281135 -0.336452,0.0922274 -0.700612,0.170502 -1.08773,0.23047 -0.391769,0.0645196 -0.769782,0.0967794 -1.13384,0.0967794 -0.354957,0.00920295 -0.640644,-0.0184059 -0.85726,-0.0829255 -0.216715,-0.0599676 -0.378014,-0.193658 -0.483996,-0.405622 -0.105982,-0.207413 -0.179804,-0.53011 -0.216616,-0.967893 -0.0322598,-0.437882 -0.0506657,-1.03251 -0.0461137,-1.77914l0 -8.48997 4.6183 0 0 -1.82515 -4.6183 0 -0.0553167 -3.9823 -1.63159 0c-0.0414627,0.156747 -0.0967794,0.373363 -0.170502,0.640644 -0.0691706,0.271932 -0.147544,0.562369 -0.23047,0.871114 -0.0830245,0.313494 -0.16595,0.608384 -0.253526,0.884967 -0.0829255,0.276583 -0.161299,0.502402 -0.23047,0.672904 -0.0783735,0.248974 -0.175153,0.451736 -0.281135,0.613035 -0.110633,0.161299 -0.244323,0.285786 -0.410174,0.382566 -0.0968784,0.0553167 -0.239673,0.115185 -0.428679,0.170502 -0.189007,0.0599676 -0.391769,0.115284 -0.608384,0.175153 -0.216616,0.0553167 -0.414825,0.106081 -0.594629,0.152096l0 1.24448 1.9912 0 0 10.6193c0,0.797391 0.124388,1.42883 0.368712,1.89442 0.244225,0.465491 0.59453,0.797292 1.06002,0.995502 0.46559,0.19821 1.03251,0.294989 1.69621,0.290437z"/>
   <path id="_50916538412345678910111213141516171819202122232425" class="fil1" d="M268.516 90.8212l0.0277078 0c0.668253,-0.00920295 1.17531,-0.193559 1.52096,-0.55762 0.345655,-0.36416 0.520808,-0.861911 0.525459,-1.4888 0.00465095,-0.308744 -0.0553167,-0.599181 -0.170502,-0.866463 -0.119836,-0.26738 -0.313494,-0.483996 -0.580775,-0.649946 -0.26738,-0.161299 -0.626889,-0.248875 -1.07397,-0.253427 -0.424028,0.004552 -0.788089,0.0921284 -1.08773,0.271932 -0.299541,0.179705 -0.530011,0.419377 -0.69131,0.72822 -0.156747,0.304192 -0.239673,0.654498 -0.239673,1.04627 0,0.327249 0.0598686,0.622238 0.184356,0.889519 0.119836,0.262729 0.313395,0.479345 0.576124,0.636092 0.258078,0.156648 0.59453,0.239673 1.00936,0.244225zm-1.10614 16.5098l-2.24008 0.248875 0 1.35511 7.32852 0 0 -1.35511 -2.21237 -0.221168 0 -13.6337 -0.636092 -0.497751 -0.0553167 0 -4.2864 0.52536 0 1.46574 2.10174 0.497751 0 11.6149z"/>
   <path id="_5091653841234567891011121314151617181920212223242526" class="fil1" d="M281.072 116.402c0.912576,-0.00465095 1.78379,-0.0967794 2.60879,-0.285786 0.829651,-0.184356 1.59468,-0.451736 2.29074,-0.797391 0.695961,-0.345655 1.30434,-0.755829 1.8205,-1.23062 0.516256,-0.470142 0.912675,-0.995601 1.19836,-1.57173 0.285786,-0.576124 0.428679,-1.18916 0.43333,-1.83901 0.004552,-0.825 -0.184356,-1.52561 -0.557719,-2.11094 -0.373363,-0.585327 -0.954138,-1.03241 -1.73302,-1.34591 -0.778985,-0.308744 -1.77449,-0.465491 -2.99135,-0.470043l-3.12495 0c-0.742074,0.004552 -1.3366,-0.0461137 -1.78369,-0.152195 -0.447085,-0.101331 -0.769683,-0.281135 -0.967893,-0.534563 -0.19821,-0.258177 -0.294989,-0.608483 -0.290437,-1.05557 0.00465095,-0.294989 0.0875765,-0.603733 0.244323,-0.917128 0.161299,-0.313494 0.373363,-0.599181 0.640644,-0.852708 0.318046,0.0829255 0.654498,0.142893 1.01401,0.184356 0.354957,0.0414627 0.72822,0.0645196 1.11544,0.0645196 0.92643,-0.00465095 1.77449,-0.13369 2.54417,-0.39642 0.774334,-0.262729 1.44734,-0.635993 2.01416,-1.12454 0.571572,-0.488647 1.01401,-1.06932 1.3275,-1.74688 0.313395,-0.677555 0.470142,-1.42883 0.474694,-2.26303 0,-0.470142 -0.0598686,-0.903472 -0.175153,-1.30444 -0.115185,-0.396321 -0.281135,-0.755829 -0.488548,-1.07388l3.04202 0 0 -2.43364 -0.940284 0c-0.483897,0.00465095 -0.930982,0.0783735 -1.35046,0.216616 -0.414825,0.138341 -0.774334,0.294989 -1.07853,0.479345 -0.304192,0.184356 -0.525459,0.345754 -0.668352,0.493199 -0.52536,-0.387118 -1.1568,-0.677555 -1.89432,-0.871114 -0.732871,-0.193559 -1.55787,-0.290338 -2.4751,-0.290338 -0.654498,0 -1.29514,0.0737226 -1.92193,0.225819 -0.622238,0.147445 -1.20301,0.368712 -1.74688,0.65905 -0.539214,0.290437 -1.01856,0.649946 -1.42883,1.07397 -0.410174,0.424028 -0.732871,0.912576 -0.963242,1.46564 -0.23047,0.548516 -0.350306,1.16155 -0.354957,1.8298 0.00465095,1.04171 0.244323,1.93588 0.72822,2.68716 0.483996,0.751277 1.18916,1.33205 2.12024,1.73758 -0.410273,0.207413 -0.769782,0.474793 -1.08773,0.806594 -0.313494,0.3319 -0.557719,0.705263 -0.737522,1.12464 -0.179705,0.414825 -0.271932,0.848057 -0.276484,1.30434 0,0.539313 0.110633,1.00025 0.327249,1.38737 0.211965,0.387217 0.530011,0.700612 0.944836,0.935633 -0.322598,0.161299 -0.636092,0.368712 -0.940284,0.617686 -0.304192,0.253427 -0.576124,0.543865 -0.820448,0.871114 -0.248875,0.327249 -0.442434,0.686758 -0.589879,1.07388 -0.142893,0.387217 -0.216616,0.797391 -0.221267,1.22607 -0.00465095,0.612936 0.115185,1.17065 0.350306,1.68226 0.235022,0.511605 0.617587,0.954138 1.14305,1.33205 0.525459,0.377915 1.21677,0.668352 2.07868,0.875765 0.85726,0.207314 1.90818,0.308744 3.148,0.313395zm0.193559 -14.4357c-0.797292,-0.00465095 -1.45179,-0.170601 -1.94964,-0.49785 -0.502402,-0.322598 -0.871114,-0.769683 -1.10614,-1.3366 -0.23047,-0.566921 -0.350306,-1.22142 -0.345655,-1.95429 0.004552,-0.861911 0.152096,-1.55322 0.433231,-2.07403 0.285786,-0.520907 0.677555,-0.89417 1.17065,-1.12464 0.493199,-0.235121 1.05557,-0.345655 1.68701,-0.341103 1.06922,-0.004552 1.87582,0.281135 2.42898,0.861911 0.553068,0.585327 0.834203,1.49335 0.834203,2.73318 0.00465095,1.20757 -0.244225,2.12944 -0.755928,2.77009 -0.511605,0.636092 -1.3089,0.95869 -2.39673,0.963341zm0.0553167 12.8317c-1.03241,0 -1.85286,-0.129039 -2.45659,-0.382566 -0.603832,-0.248875 -1.03241,-0.608384 -1.29059,-1.07853 -0.258078,-0.470142 -0.382566,-1.03241 -0.373264,-1.69156 0.004552,-0.396321 0.0552177,-0.765131 0.156648,-1.10614 0.105982,-0.341103 0.239673,-0.649946 0.414825,-0.931081 0.170502,-0.281135 0.354957,-0.534662 0.562271,-0.755829 0.248974,0.0553167 0.516256,0.0921284 0.811245,0.110534 0.290338,0.0185049 0.599181,0.0277078 0.931081,0.0277078l3.26319 0c0.668352,0 1.21222,0.0506657 1.63624,0.156747 0.428679,0.105982 0.755928,0.258078 0.986299,0.46084 0.235121,0.202861 0.39642,0.451736 0.483996,0.746725 0.0922274,0.294989 0.13369,0.631441 0.129039,1.01401 -0.004552,0.553068 -0.156648,1.04162 -0.451637,1.47029 -0.294989,0.424028 -0.691409,0.783537 -1.18916,1.07388 -0.502402,0.290437 -1.06012,0.511605 -1.68236,0.659149 -0.622238,0.152096 -1.26753,0.225819 -1.93123,0.225819z"/>
   <polygon id="_509165384123456789101112131415161718192021222324252627" class="fil1" points="292.714,107.331 290.972,107.58 290.972,108.935 297.554,108.935 297.554,107.58 295.59,107.331 295.59,105.146 295.535,103.736 298.383,100.915 302.283,107.331 300.54,107.58 300.54,108.935 307.26,108.935 307.26,107.58 305.546,107.359 300.292,99.2006 304.357,95.246 306.541,94.8589 306.541,93.5868 299.849,93.5868 299.849,94.8589 301.923,95.246 295.535,101.855 295.59,100.224 295.59,86.7008 294.982,86.286 294.954,86.286 290.557,86.8113 290.557,88.0005 292.714,88.3047 "/>
   <path id="_50916538412345678910111213141516171819202122232425262728" class="fil1" d="M314.644 109.239c0.571572,-0.004552 1.13384,-0.0598686 1.69156,-0.175153 0.553068,-0.115185 1.08318,-0.271932 1.58093,-0.465491 0.497751,-0.193559 0.944836,-0.410174 1.34126,-0.654498 0.39642,-0.244323 0.719018,-0.493199 0.972544,-0.751277l-0.525459 -1.21677c-0.294989,0.235022 -0.668352,0.456288 -1.12464,0.65905 -0.456288,0.202762 -0.949487,0.368712 -1.48415,0.497751 -0.530011,0.129138 -1.05082,0.193658 -1.56707,0.19821 -0.765131,-0.004552 -1.44259,-0.156648 -2.02801,-0.451637 -0.580676,-0.29964 -1.06932,-0.719018 -1.46564,-1.26288 -0.39642,-0.543964 -0.700612,-1.18461 -0.903373,-1.92668 -0.207413,-0.737423 -0.318046,-1.55322 -0.3319,-2.44274l9.51318 0c0.0691706,-0.313494 0.119836,-0.682206 0.147544,-1.10158 0.0322598,-0.414825 0.0460147,-0.908024 0.0460147,-1.47029 -0.0368118,-1.18461 -0.276484,-2.18476 -0.714367,-3.00056 -0.437882,-0.815797 -1.05547,-1.43804 -1.86206,-1.86206 -0.806594,-0.424028 -1.77914,-0.640644 -2.92683,-0.640644 -1.06002,0.004552 -2.03257,0.193559 -2.91288,0.571473 -0.880317,0.378014 -1.6409,0.921878 -2.28154,1.62704 -0.645295,0.705164 -1.13839,1.55322 -1.4887,2.53962 -0.350306,0.986299 -0.53011,2.08788 -0.534662,3.3093 0,1.17996 0.142893,2.25848 0.424028,3.23558 0.281135,0.977096 0.705164,1.82525 1.27209,2.53507 0.571572,0.714367 1.28139,1.26743 2.1433,1.6592 0.85726,0.387217 1.86662,0.585426 3.01886,0.589978zm-3.81626 -9.45786c0.0506657,-0.95869 0.175153,-1.76063 0.373264,-2.41058 0.19821,-0.654498 0.456387,-1.17531 0.778985,-1.56242 0.322598,-0.387217 0.69131,-0.668352 1.11544,-0.838854 0.424028,-0.170601 0.884869,-0.253526 1.38272,-0.248875 0.732772,0.004552 1.3274,0.175054 1.77449,0.506954 0.447085,0.327249 0.774334,0.783537 0.977096,1.36431 0.207413,0.580676 0.313395,1.24903 0.318046,2.00031 0,0.193559 -0.00465095,0.391769 -0.0184059,0.594629 -0.0138539,0.202762 -0.0369108,0.400972 -0.0645196,0.59453l-6.63711 0z"/>
   <path id="_5091653841234567891011121314151617181920212223242526272829" class="fil1" d="M326.148 90.8212l0.0277078 0c0.668253,-0.00920295 1.17531,-0.193559 1.52096,-0.55762 0.345655,-0.36416 0.520808,-0.861911 0.525459,-1.4888 0.00465095,-0.308744 -0.0553167,-0.599181 -0.170502,-0.866463 -0.119836,-0.26738 -0.313494,-0.483996 -0.580775,-0.649946 -0.26738,-0.161299 -0.626889,-0.248875 -1.07397,-0.253427 -0.424028,0.004552 -0.788089,0.0921284 -1.08773,0.271932 -0.299541,0.179705 -0.530011,0.419377 -0.69131,0.72822 -0.156747,0.304192 -0.239673,0.654498 -0.239673,1.04627 0,0.327249 0.0598686,0.622238 0.184356,0.889519 0.119836,0.262729 0.313395,0.479345 0.576124,0.636092 0.258078,0.156648 0.59453,0.239673 1.00936,0.244225zm-1.10614 16.5098l-2.24008 0.248875 0 1.35511 7.32852 0 0 -1.35511 -2.21237 -0.221168 0 -13.6337 -0.636092 -0.497751 -0.0553167 0 -4.2864 0.52536 0 1.46574 2.10174 0.497751 0 11.6149z"/>
   <path id="_509165384123456789101112131415161718192021222324252627282930" class="fil1" d="M336.823 109.212c0.433231,-0.00465095 0.889519,-0.0461137 1.36431,-0.13369 0.474694,-0.0875765 0.935633,-0.202861 1.38727,-0.345655 0.451736,-0.142893 0.857359,-0.29964 1.22142,-0.46559 0.36416,-0.165851 0.654498,-0.331801 0.866562,-0.4931l-0.414825 -1.24448c-0.207413,0.0967794 -0.483996,0.188908 -0.820448,0.281135 -0.336452,0.0922274 -0.700612,0.170502 -1.08773,0.23047 -0.391769,0.0645196 -0.769782,0.0967794 -1.13384,0.0967794 -0.354957,0.00920295 -0.640644,-0.0184059 -0.85726,-0.0829255 -0.216715,-0.0599676 -0.378014,-0.193658 -0.483996,-0.405622 -0.105982,-0.207413 -0.179804,-0.53011 -0.216616,-0.967893 -0.0322598,-0.437882 -0.0506657,-1.03251 -0.0461137,-1.77914l0 -8.48997 4.6183 0 0 -1.82515 -4.6183 0 -0.0553167 -3.9823 -1.63159 0c-0.0414627,0.156747 -0.0967794,0.373363 -0.170502,0.640644 -0.0691706,0.271932 -0.147544,0.562369 -0.23047,0.871114 -0.0830245,0.313494 -0.16595,0.608384 -0.253526,0.884967 -0.0829255,0.276583 -0.161299,0.502402 -0.23047,0.672904 -0.0783735,0.248974 -0.175153,0.451736 -0.281135,0.613035 -0.110633,0.161299 -0.244323,0.285786 -0.410174,0.382566 -0.0968784,0.0553167 -0.239673,0.115185 -0.428679,0.170502 -0.189007,0.0599676 -0.391769,0.115284 -0.608384,0.175153 -0.216616,0.0553167 -0.414825,0.106081 -0.594629,0.152096l0 1.24448 1.9912 0 0 10.6193c0,0.797391 0.124388,1.42883 0.368712,1.89442 0.244225,0.465491 0.59453,0.797292 1.06002,0.995502 0.46559,0.19821 1.03251,0.294989 1.69621,0.290437z"/>
  </g>
 </g>
</svg>
