<svg width="242" height="242" viewBox="0 0 242 242" fill="none" xmlns="http://www.w3.org/2000/svg">
<circle cx="121" cy="121" r="121" fill="#E9A439"/>
<path d="M120.5 121C128.911 121 136.978 117.681 142.925 111.774C148.873 105.866 152.214 97.8543 152.214 89.5C152.214 81.1457 148.873 73.1335 142.925 67.2261C136.978 61.3187 128.911 58 120.5 58C112.089 58 104.022 61.3187 98.0746 67.2261C92.127 73.1335 88.7857 81.1457 88.7857 89.5C88.7857 97.8543 92.127 105.866 98.0746 111.774C104.022 117.681 112.089 121 120.5 121ZM109.177 132.812C84.7719 132.812 65 152.451 65 176.691C65 180.727 68.2953 184 72.3587 184H168.641C172.705 184 176 180.727 176 176.691C176 152.451 156.228 132.812 131.823 132.812H109.177Z" fill="white"/>
</svg>
